<svg xmlns="http://www.w3.org/2000/svg" version="1.1" width="1040px" height="292px" style="shape-rendering:geometricPrecision; text-rendering:geometricPrecision; image-rendering:optimizeQuality; fill-rule:evenodd; clip-rule:evenodd" xmlns:xlink="http://www.w3.org/1999/xlink">
    <g><path style="opacity:0.999" fill="#e30611" d="M -0.5,-0.5 C 95.5,-0.5 191.5,-0.5 287.5,-0.5C 287.5,96.8333 287.5,194.167 287.5,291.5C 191.5,291.5 95.5,291.5 -0.5,291.5C -0.5,194.167 -0.5,96.8333 -0.5,-0.5 Z"/></g>
    <g><path style="opacity:1" fill="#fefbfb" d="M 155.5,228.5 C 155.5,187.167 155.5,145.833 155.5,104.5C 156.496,90.0095 156.829,75.3428 156.5,60.5C 157.748,58.3509 159.248,56.3509 161,54.5C 163.043,56.208 164.71,58.208 166,60.5C 168.018,58.6499 169.851,56.6499 171.5,54.5C 172.833,56.5 174.5,58.1667 176.5,59.5C 178.483,58.018 180.316,56.3513 182,54.5C 183.29,56.792 184.957,58.792 187,60.5C 188.29,58.208 189.957,56.208 192,54.5C 193.667,56.5 195.333,58.5 197,60.5C 199.043,58.792 200.71,56.792 202,54.5C 203.684,56.3513 205.517,58.018 207.5,59.5C 209.5,58.1667 211.167,56.5 212.5,54.5C 213.815,56.3159 215.315,57.9825 217,59.5C 217.5,116.499 217.667,173.499 217.5,230.5C 196.473,231.155 175.806,230.488 155.5,228.5 Z"/></g>
    <g><path style="opacity:1" fill="#fefbfb" d="M 130.5,60.5 C 130.5,102.833 130.5,145.167 130.5,187.5C 130.5,201.833 130.5,216.167 130.5,230.5C 128.856,232.481 127.19,234.481 125.5,236.5C 124.167,234.5 122.5,232.833 120.5,231.5C 118.517,232.982 116.684,234.649 115,236.5C 113.987,234.154 112.321,232.487 110,231.5C 108.355,233.145 106.688,234.812 105,236.5C 103.333,234.5 101.667,232.5 100,230.5C 97.954,232.376 96.1207,234.376 94.5,236.5C 92.8076,234.641 91.3076,232.641 90,230.5C 87.9824,232.35 86.1491,234.35 84.5,236.5C 83.1667,234.5 81.5,232.833 79.5,231.5C 77.5171,232.982 75.6837,234.649 74,236.5C 72.4263,235.016 71.093,233.349 70,231.5C 69.5,174.501 69.3333,117.501 69.5,60.5C 89.8333,60.5 110.167,60.5 130.5,60.5 Z"/></g>
    <g><path style="opacity:1" fill="#f49fa3" d="M 156.5,60.5 C 156.829,75.3428 156.496,90.0095 155.5,104.5C 155.167,103.833 154.833,103.167 154.5,102.5C 155.167,88.5 155.833,74.5 156.5,60.5 Z"/></g>
    <g><path style="opacity:1" fill="#c5c4c4" d="M 130.5,60.5 C 138.991,74.1391 146.991,88.1391 154.5,102.5C 154.833,103.167 155.167,103.833 155.5,104.5C 155.5,145.833 155.5,187.167 155.5,228.5C 147.596,215.7 139.929,202.7 132.5,189.5C 132.167,188.5 131.5,187.833 130.5,187.5C 130.5,145.167 130.5,102.833 130.5,60.5 Z"/></g>
    <g><path style="opacity:0.922" fill="#000000" d="M 641.5,87.5 C 648.167,87.5 654.833,87.5 661.5,87.5C 661.333,108.836 661.5,130.169 662,151.5C 674.133,141.035 685.966,130.202 697.5,119C 705.5,118.333 713.5,118.333 721.5,119C 710.652,129.681 699.986,140.514 689.5,151.5C 700.094,166.263 711.26,180.596 723,194.5C 723.483,195.448 723.649,196.448 723.5,197.5C 715.804,197.831 708.138,197.497 700.5,196.5C 691.905,185.649 683.072,174.982 674,164.5C 669.7,167.798 665.7,171.465 662,175.5C 661.5,182.826 661.334,190.159 661.5,197.5C 654.833,197.5 648.167,197.5 641.5,197.5C 641.5,160.833 641.5,124.167 641.5,87.5 Z"/></g>
    <g><path style="opacity:0.944" fill="#000000" d="M 364.5,93.5 C 370.206,93.1712 375.872,93.5046 381.5,94.5C 399.477,116.978 417.644,139.312 436,161.5C 436.5,138.836 436.667,116.169 436.5,93.5C 443.167,93.5 449.833,93.5 456.5,93.5C 456.5,128.167 456.5,162.833 456.5,197.5C 451.156,197.666 445.823,197.499 440.5,197C 422,174.5 403.5,152 385,129.5C 384.5,152.164 384.333,174.831 384.5,197.5C 377.833,197.5 371.167,197.5 364.5,197.5C 364.5,162.833 364.5,128.167 364.5,93.5 Z"/></g>
    <g><path style="opacity:0.958" fill="#000000" d="M 618.5,117.5 C 621.5,117.5 624.5,117.5 627.5,117.5C 627.5,123.5 627.5,129.5 627.5,135.5C 610.715,133.461 601.548,140.795 600,157.5C 599.5,170.829 599.333,184.163 599.5,197.5C 593.5,197.5 587.5,197.5 581.5,197.5C 581.5,171.167 581.5,144.833 581.5,118.5C 587.5,118.5 593.5,118.5 599.5,118.5C 599.335,121.518 599.502,124.518 600,127.5C 605.186,122.16 611.353,118.827 618.5,117.5 Z"/></g>
    <g><path style="opacity:0.942" fill="#000000" d="M 753.5,117.5 C 765.382,116.217 776.716,118.051 787.5,123C 793.976,127.439 797.81,133.605 799,141.5C 799.5,160.164 799.667,178.83 799.5,197.5C 793.5,197.5 787.5,197.5 781.5,197.5C 781.664,194.813 781.497,192.146 781,189.5C 774.914,195.421 767.58,198.421 759,198.5C 747.835,198.58 738.502,194.58 731,186.5C 723.97,166.732 730.803,154.899 751.5,151C 761.161,150.5 770.828,150.334 780.5,150.5C 780.723,143.445 777.723,138.279 771.5,135C 759.64,131.873 748.64,133.706 738.5,140.5C 734.66,136.483 732.16,131.816 731,126.5C 737.998,122.006 745.498,119.006 753.5,117.5 Z M 757.5,163.5 C 765.167,163.5 772.833,163.5 780.5,163.5C 781.035,176.801 774.535,183.467 761,183.5C 748.742,183.433 744.909,177.933 749.5,167C 752.158,165.522 754.825,164.355 757.5,163.5 Z"/></g>
    <g><path style="opacity:0.936" fill="#000000" d="M 842.5,117.5 C 851.956,117.044 861.29,117.877 870.5,120C 874.161,120.829 877.495,122.329 880.5,124.5C 878.324,129.528 875.657,134.194 872.5,138.5C 863.027,133.803 853.027,132.303 842.5,134C 835.187,135.409 833.187,139.242 836.5,145.5C 838.167,146.333 839.833,147.167 841.5,148C 851.653,149.697 861.653,152.031 871.5,155C 881.593,160.578 885.093,169.078 882,180.5C 877.383,189.765 869.883,195.265 859.5,197C 846.224,198.906 833.224,197.572 820.5,193C 817.79,191.985 815.457,190.485 813.5,188.5C 815.661,183.508 818.328,178.841 821.5,174.5C 833.716,182.204 846.716,184.037 860.5,180C 865.776,175.132 865.109,171.132 858.5,168C 848.036,166.201 837.703,163.868 827.5,161C 817.161,154.999 813.661,146.166 817,134.5C 819.5,128 824,123.5 830.5,121C 834.543,119.509 838.543,118.342 842.5,117.5 Z"/></g>
    <g><path style="opacity:0.937" fill="#000000" d="M 917.5,117.5 C 928.372,116.863 939.039,118.03 949.5,121C 951.874,121.848 953.874,123.181 955.5,125C 953.628,129.915 951.128,134.415 948,138.5C 938.342,133.821 928.175,132.321 917.5,134C 910.349,135.754 908.683,139.754 912.5,146C 923.759,149.211 935.092,152.211 946.5,155C 954.386,158.597 958.386,164.763 958.5,173.5C 956.354,187.145 948.354,194.979 934.5,197C 919.079,199.524 904.413,197.19 890.5,190C 890.767,184.268 892.934,179.102 897,174.5C 908.313,181.563 920.479,183.73 933.5,181C 939.979,178.258 940.979,174.258 936.5,169C 926.189,166.559 915.855,164.226 905.5,162C 891.014,154.872 887.514,144.039 895,129.5C 901.249,122.961 908.749,118.961 917.5,117.5 Z"/></g>
    <g><path style="opacity:0.942" fill="#000000" d="M 1039.5,142.5 C 1039.5,160.833 1039.5,179.167 1039.5,197.5C 1033.5,197.5 1027.5,197.5 1021.5,197.5C 1021.66,194.482 1021.5,191.482 1021,188.5C 1017.76,193.209 1013.26,196.042 1007.5,197C 994.815,199.813 983.315,197.313 973,189.5C 964.916,177.342 966.083,166.175 976.5,156C 981.133,153.258 986.133,151.591 991.5,151C 1001.16,150.5 1010.83,150.334 1020.5,150.5C 1020.72,143.436 1017.72,138.27 1011.5,135C 999.5,131.934 988.334,133.768 978,140.5C 974.625,136.926 972.125,132.76 970.5,128C 972.355,125.057 975.021,123.057 978.5,122C 993.377,116.44 1008.38,116.106 1023.5,121C 1032.38,125.613 1037.71,132.779 1039.5,142.5 Z M 997.5,163.5 C 1005.17,163.5 1012.83,163.5 1020.5,163.5C 1021.03,176.801 1014.53,183.467 1001,183.5C 989.68,184.195 985.347,179.195 988,168.5C 990.64,165.599 993.807,163.932 997.5,163.5 Z"/></g>
    <g><path style="opacity:0.955" fill="#000000" d="M 480.5,118.5 C 486.833,118.5 493.167,118.5 499.5,118.5C 499.09,135.542 499.59,152.542 501,169.5C 503.788,177.407 509.455,181.407 518,181.5C 528.232,180.599 534.899,175.266 538,165.5C 538.5,149.837 538.667,134.17 538.5,118.5C 544.833,118.5 551.167,118.5 557.5,118.5C 557.5,144.833 557.5,171.167 557.5,197.5C 551.5,197.5 545.5,197.5 539.5,197.5C 539.665,194.482 539.498,191.482 539,188.5C 524.344,200.039 508.844,201.206 492.5,192C 485.362,186.224 481.529,178.724 481,169.5C 480.5,152.503 480.333,135.503 480.5,118.5 Z"/></g>
    <g><path style="opacity:1" fill="#ec6168" d="M 130.5,187.5 C 131.5,187.833 132.167,188.5 132.5,189.5C 131.833,203.167 131.167,216.833 130.5,230.5C 130.5,216.167 130.5,201.833 130.5,187.5 Z"/></g>
</svg>
